<svg xmlns="http://www.w3.org/2000/svg" width="83.726" height="83.884" viewBox="0 0 83.726 83.884">
  <g id="Grupo_8657" data-name="Grupo 8657" transform="translate(644.357 28.665)">
    <path id="Trazado_6367" data-name="Trazado 6367" d="M-571.533,54.844a12.127,12.127,0,0,0,1.484-1.175c2.164-2.122,4.386-4.357,6.3-6.284l2.085-2.1c1.371-1.375,1.38-2.482.035-3.825l-5.2-5.2c-3.143-3.14-6.393-6.388-9.585-9.588a1.956,1.956,0,0,1-.565-1.268C-577,21.733-577,18.123-577,14.329V9.056l.95.871.636.583.565.518.992.909.021.019.019.022a1.256,1.256,0,0,0,.732.4,1.161,1.161,0,0,0,.706-.416l.019-.024.021-.021c3.551-3.55,7.224-7.228,11.226-11.247l.043-.043.051-.033a.819.819,0,0,0,.242-1.131.827.827,0,0,0-.161-.183l-.048-.039L-561.02-.8q-1.464-1.9-2.92-3.8l-.123-.16c-2.508-3.266-5.1-6.643-7.709-9.913a18.689,18.689,0,0,0-13.177-7.139h-.03a2.239,2.239,0,0,1-2.224-1.963,6.081,6.081,0,0,0-4.9-4.756,2.4,2.4,0,0,1-.4-.13h-20.054c-.132.039-.264.077-.393.113l-.006,0-.05.014a8.515,8.515,0,0,0-1.066.351A6.279,6.279,0,0,0-617.92-23.4a1.648,1.648,0,0,1-1.611,1.514,19.828,19.828,0,0,0-8.229,2.5,21.307,21.307,0,0,0-6.4,5.815c-2.238,2.988-4.618,6.045-6.718,8.741-1,1.283-2.03,2.608-3.039,3.916-.124.16-.245.322-.366.484l-.063.084-.015.021v.4l.03.045a2.983,2.983,0,0,0,.35.46c3.827,3.85,7.662,7.694,11.384,11.412l.018.018.016.02a.99.99,0,0,0,.632.345,1.093,1.093,0,0,0,.652-.324c.309-.277.582-.528.885-.807l.191-.176.6-.552.637-.584.95-.871v5.6c0,1.475,0,12.943,0,19.554a1.891,1.891,0,0,1,.689-.132,1.919,1.919,0,0,1,.763.149v-50.86a.685.685,0,0,0,0-.1,2.081,2.081,0,0,1,.058-.833,1.967,1.967,0,0,1,.847-1.235l.035-.023.037-.018a16.881,16.881,0,0,1,6.565-1.606h.056a1.9,1.9,0,0,1,1.461.815c1.4,2.2,2.806,4.419,4.164,6.57s2.775,4.391,4.17,6.581a.818.818,0,0,0,.63.45,1,1,0,0,0,.671-.359c.52-.561,1.008-1.114,1.548-1.73.3-.344.6-.688.911-1.03a3.558,3.558,0,0,1,.418-.384c.041-.033.093-.077.147-.124l.628-.549.94-.822V44.67h-23.282V31.547a1.825,1.825,0,0,1-.727.15h-.08a1.948,1.948,0,0,1-.215-.016,1.867,1.867,0,0,1-.432-.113c0,.887,0,10.773,0,11.66v1.514c0,1.393.039,1.433,1.408,1.433h13.543c9.347,0,19.379,0,29.406-.014l.09,0a2.79,2.79,0,0,1,2.055.907c1.9,1.943,4.178,4.253,6.53,6.537a14.255,14.255,0,0,0,1.513,1.218c.181.133.36.265.537.4h.869c.159-.117.32-.231.478-.343Zm-5.462-67.7V-17.59l.926.758.62.509c.108.087.208.163.3.235a3.6,3.6,0,0,1,.631.558l.842,1.016.036.044c1.26,1.515,2.562,3.081,3.806,4.659,1.491,1.889,2.981,3.826,4.422,5.7l.121.157q.9,1.174,1.8,2.345c.15.193.293.389.415.562l.141.193.193.254.3.393-.348.35-.231.232-4.082,4.088-5.46,5.468-.258.259-.388.389-.4-.374-.268-.25-.625-.582c-.658-.61-1.338-1.242-2.008-1.891a1.851,1.851,0,0,1-.486-1.294c-.007-5.671-.007-11.265-.007-17.117ZM-628.03,5.9a2.925,2.925,0,0,1-.769,1.847c-.513.55-1.059,1.046-1.586,1.525l-.1.089c-.214.193-.424.383-.629.574l-.269.249-.4.373-.387-.388-.259-.26L-642,.313l-.243-.243-.36-.361.322-.4.216-.266c1.57-1.926,3.113-3.957,4.606-5.921l.085-.112c2.342-3.077,4.763-6.26,7.413-9.206l.186-.207.277-.307.377.17.253.114.095.042.156.07.2.094.3.139.025.333.017.224.018.2c.019.191.036.372.036.557v2.582C-628.006-6.392-628-.19-628.03,5.9Zm42.5-26.366.025,0h.025a3.684,3.684,0,0,1,1.027.162c1.241.36,2.527.706,3.661,1.01l.962.26a1.823,1.823,0,0,1,1.4,1.982c-.02,2.9-.018,5.845-.016,8.7V26.31h-4.321c-1.5,0-3.275,0-5.034-.01a2.033,2.033,0,0,1-1.162-.41,10.8,10.8,0,0,0-6.467-2.309,11.661,11.661,0,0,0-4.625,1.03,2.075,2.075,0,0,1-.443.13l-.049.009-.088.008h-.054a1.069,1.069,0,0,1-.444-.106l-.233-.083-.373-.136v-36l.991,1.12.664.75.878.991c.608.689,1.18,1.335,1.754,1.98l.024.026.02.029a1.6,1.6,0,0,0,.974.652c.117-.021.405-.149.853-.85.684-1.071,1.383-2.157,2.06-3.2,1.6-2.476,3.589-5.554,5.374-8.529A3.08,3.08,0,0,1-585.535-20.462Zm-6.784-6.547a2.083,2.083,0,0,1,.767.161,4.777,4.777,0,0,1,2.845,2.964,5.163,5.163,0,0,1-.561,4.413c-1.524,2.438-3.084,4.873-4.593,7.227q-.892,1.4-1.786,2.791a3.412,3.412,0,0,1-.244.328l-.03.038-.09.112-.273.348-.421.538-.451-.513-.3-.341-.74-.832-.038-.044c-.923-1.038-1.795-2.019-2.67-3.045l-.035-.042-.027-.048a1.621,1.621,0,0,1,.048-1.675c1.23-1.956,2.49-3.947,3.707-5.87,1.181-1.867,2.4-3.8,3.6-5.7A1.524,1.524,0,0,1-592.319-27.009Zm-11.749,14.092-.165.306-.077,0c-.731.863-1.471,1.7-2.25,2.576l-.2.227c-.267.3-.533.6-.8.9l-.332.374-.493.556-.406-.622-.272-.417-.269-.413c-.18-.273-.344-.524-.505-.778q-.843-1.32-1.691-2.643c-1.505-2.348-2.859-4.465-4.2-6.6a5.191,5.191,0,0,1-.606-4.317,4.884,4.884,0,0,1,2.771-3.033,2.052,2.052,0,0,1,.8-.187h.051a1.694,1.694,0,0,1,1.411.925c1.211,1.934,2.452,3.893,3.654,5.792l.075.118.291.459c1.04,1.641,2.108,3.327,3.15,4.992A1.777,1.777,0,0,1-604.068-12.917Zm1.568-1.963-.48-.756-.321-.506-.6-.948-5.462-8.613-.37-.583-.552-.871h15.562l-.552.871-.37.583-2.377,3.751-3.68,5.808-.32.507Zm17.329,59.55-.933.01H-601.7l-.025-.54-.017-.362c0-.077-.005-.128-.009-.178l-.006-.066c-.013-.224-.024-.417-.024-.612v-3.89c0-3.387,0-6.89-.016-10.335a2.239,2.239,0,0,1,1.069-2.028,9.047,9.047,0,0,1,5.172-1.61,9.122,9.122,0,0,1,5.068,1.51,2.043,2.043,0,0,1,.978,1.929c-.016,1.9-.016,3.876-.015,5.788v3.7a2.37,2.37,0,0,0,.731,1.789c.735.722,1.466,1.437,2.254,2.2l1.091,1.067.664.651.978.957Zm13.02,8.863-.387.388-.4-.373-.269-.25-.111-.1-.053-.049c-.1-.095-.226-.206-.342-.324l-2.253-2.254c-3.617-3.618-7.486-7.493-11.267-11.322a3.017,3.017,0,0,1-.81-1.915c-.042-1.478-.036-2.964-.03-4.4V30.749l.264-.167.177-.112.108-.066.071-.045.262-.164.388-.244.319.329.214.22q.294.3.59.608c.424.441.865.893,1.31,1.334a1.152,1.152,0,0,0,.792.386.6.6,0,0,0,.39-.183.655.655,0,0,0,.233-.472,1.155,1.155,0,0,0-.389-.752c-.431-.434-.856-.836-1.269-1.227l-.054-.051c-.2-.189-.4-.378-.6-.569l-.193-.186-.288-.277.164-.364.11-.244.088-.2.1-.224.15-.336h.614c.46,0,.927.007,1.381.013l.127,0,.138,0c.445.006.9.013,1.344.013.743,0,1.349-.018,1.907-.056.13-.009.261-.013.384-.013h0a4.488,4.488,0,0,1,3.431,1.574c3.389,3.475,6.924,7,9.969,10.032l2.685,2.68a2.124,2.124,0,0,0,.326.242c.1.064.179.117.249.168l.356.258.537.389-.469.47-.314.315-4.379,4.387-5.045,5.053Z"/>
  </g>
</svg>
