<svg xmlns="http://www.w3.org/2000/svg" width="85.054" height="85" viewBox="0 0 85.054 85">
  <g id="Grupo_8593" data-name="Grupo 8593" transform="translate(516.78 26.156)">
    <path id="Trazado_6364" data-name="Trazado 6364" d="M-468.692,46.9a15.5,15.5,0,0,0,1.856.112,15.447,15.447,0,0,0,7.428-1.91c5.206-2.79,10.579-5.447,15.777-8.018q2.95-1.458,5.9-2.926c.564-.282,1.144-.545,1.7-.8.736-.334,1.5-.679,2.211-1.065a3.99,3.99,0,0,0,1.787-5.048l-.012-.029-.009-.03a3.857,3.857,0,0,0-3.672-2.742,3.881,3.881,0,0,0-.772.078,11.9,11.9,0,0,0-1.381.386c-.257.083-.521.168-.8.249l-.778.228,0-.812-.005-1.14V-23.455c0-2.02-.682-2.7-2.7-2.7h-56.114c-2.068,0-2.766.692-2.766,2.741l0,11.776c0,13.863-.01,28.2.05,42.3.006,1.741-.4,2.963-2.417,3.677l-.352.125a5.119,5.119,0,0,1-1.626.425c-.836,0-1.287-.557-2.1-1.57l-.08-.1c-.058-.073-.116-.147-.178-.218l-.019-.023-.017-.025a2.161,2.161,0,0,0-.2-.244,2.117,2.117,0,0,0-1.548-.663,2.122,2.122,0,0,0-1.471.588q-2.448,1.972-4.8,3.921l-.026.022-.029.018a2.1,2.1,0,0,0-.326.266,1.99,1.99,0,0,0-.578,1.416,1.985,1.985,0,0,0,.593,1.409l.02.022.019.023q7.593,9.149,15.208,18.279a2.31,2.31,0,0,0,.2.234,1.944,1.944,0,0,0,1.415.6,1.951,1.951,0,0,0,1.358-.546c1.615-1.406,3.239-2.892,4.989-4.561a2.135,2.135,0,0,0,.178-.174,1.871,1.871,0,0,0,.483-1.359,1.87,1.87,0,0,0-.619-1.3,13.236,13.236,0,0,0-1.325-1.05l-.505-.35.354-.5.216-.307.131-.186.222-.055q.545-.136,1.088-.279c.786-.2,1.6-.415,2.415-.58a72.3,72.3,0,0,1,13.112-1.2A72.47,72.47,0,0,1-468.692,46.9Zm-8.6-58.394V-24.6h14.057v13.35l-.536.067a1.048,1.048,0,0,1-.237.033h-.158l-.171-.084a3.556,3.556,0,0,0-1.75-.455,7.915,7.915,0,0,0-3.01.816,2.751,2.751,0,0,1-1.146.246,2.771,2.771,0,0,1-1.144-.245l-.168-.068a7.646,7.646,0,0,0-2.779-.761,3.3,3.3,0,0,0-1.987.693l-.971.708ZM-499.643,31.6V-24.629h.611l19.475-.006h.611v14.108a4.43,4.43,0,0,0,.028.775c.054.292.237.669.563.669a.684.684,0,0,0,.3-.081,8.018,8.018,0,0,1,3.768-.941,8.028,8.028,0,0,1,3.8.959.633.633,0,0,0,.156.019.627.627,0,0,0,.29-.071,7.424,7.424,0,0,1,3.585-.924,7.437,7.437,0,0,1,3.561.911,1.234,1.234,0,0,0,.516.142c.489,0,.542-.715.542-1.022q.006-4.279,0-8.556v-5.967h20.79v1.528c-.008,15.821,0,31.868.014,47.7a1.6,1.6,0,0,1-1.251,1.793c-4.553,1.486-8.937,2.959-14.188,4.727a1.658,1.658,0,0,1-.676.143,1.667,1.667,0,0,1-1.163-.475,8,8,0,0,0-5.03-1.809,68.4,68.4,0,0,1-15.852-2.275,16.862,16.862,0,0,0-4.938-.74A16.972,16.972,0,0,0-494.18,29.3c-.981.682-1.978,1.279-3.034,1.911-.488.292-.987.591-1.5.905l-.932.576Zm5.288,20.038.341.41-.36.393-4.468,4.88-.472.516-.448-.538L-515.2,38.746l-.394-.475.479-.389,5.105-4.161.469-.383.387.466Zm-.481-4.288a1.625,1.625,0,0,1-.438.063,1.591,1.591,0,0,1-.99-.348l-.046-.038-.039-.045c-1.95-2.317-3.92-4.7-5.825-7.006l-2.187-2.644-.5-.6.708-.338c.716-.342,1.426-.671,2.13-1,1.58-.733,3.073-1.426,4.537-2.209,1.273-.682,2.522-1.482,3.731-2.255.54-.346,1.079-.691,1.623-1.028a14.576,14.576,0,0,1,7.976-2.366,14.6,14.6,0,0,1,4.427.687,52.2,52.2,0,0,0,14.645,2.148,26.438,26.438,0,0,1,3.706.309c.066,0,.132.005.2.012a2.584,2.584,0,0,1,2.317,2.822,2.489,2.489,0,0,1-2.549,2.812c-.984.082-1.974.123-2.954.123q-.783,0-1.564-.034c-.675-.02-1.357-.055-2.04-.091-1.078-.054-2.192-.111-3.28-.111a19.813,19.813,0,0,0-3.751.31,15.845,15.845,0,0,0-3.241,1.078l-.033.015-.034.011a.678.678,0,0,0-.155.072.663.663,0,0,0-.292.417.662.662,0,0,0,.088.5l.018.029.015.031a.677.677,0,0,0,.053.089.691.691,0,0,0,.566.3.68.68,0,0,0,.391-.124l.043-.029.048-.023a12.577,12.577,0,0,1,5.278-1.169c.251,0,.5.008.754.023,1.266,0,2.581.079,3.853.153,1.164.067,2.367.137,3.545.15.1,0,.2,0,.3,0a15.933,15.933,0,0,0,3.522-.4,4.207,4.207,0,0,0,3.1-3.384,1.9,1.9,0,0,1,1.43-1.493q9.457-3.167,18.914-6.337a4.208,4.208,0,0,1,1.328-.25,2.105,2.105,0,0,1,2.062,1.488l.039.1a2.717,2.717,0,0,1-.057,2.1,2.728,2.728,0,0,1-1.522,1.441c-1.341.636-2.73,1.279-4.119,1.923-2.568,1.191-5.225,2.422-7.8,3.7-4.376,2.18-9.107,4.636-14.464,7.507a9.284,9.284,0,0,1-4.5,1.164,9.325,9.325,0,0,1-1.026-.057A96.292,96.292,0,0,0-477.063,45c-2.088,0-4.2.07-6.286.207A43.328,43.328,0,0,0-494.836,47.345Z" transform="translate(0 0)"/>
    <path id="Trazado_6365" data-name="Trazado 6365" d="M-462.9,7.441h.067A3.893,3.893,0,0,0-459.093,4.6a3.865,3.865,0,0,0-.572-3.458,4.455,4.455,0,0,0-3.62-1.647q-4.685-.011-9.369-.012t-9.368.012h-.072a5.958,5.958,0,0,0-1.542.2,3.856,3.856,0,0,0-2.753,4.186,3.857,3.857,0,0,0,3.818,3.543q1.958.026,3.911.023,1.479,0,2.96-.005t2.964-.006h.563l0,.014,2.373,0,2.934,0Q-464.884,7.454-462.9,7.441Zm-9.814-1.613h-.388l-2.92,0-2.922,0q-1.589,0-3.177-.005a2.5,2.5,0,0,1-2.744-1.872c-.013-.043-.025-.1-.037-.149a2.425,2.425,0,0,1,.346-1.832,2.422,2.422,0,0,1,1.539-1.05,6.047,6.047,0,0,1,1.076-.1l.153,0q4.556,0,9.109,0t9.106,0l.149,0A5.928,5.928,0,0,1-462.27.94a2.351,2.351,0,0,1,1.838,2.553,2.344,2.344,0,0,1-2.034,2.271,8.019,8.019,0,0,1-1.016.066l-.184,0Z" transform="translate(2.361 1.994)"/>
  </g>
</svg>
