<svg xmlns="http://www.w3.org/2000/svg" width="78.859" height="78.866" viewBox="0 0 78.859 78.866">
  <g id="Grupo_8596" data-name="Grupo 8596" transform="translate(404.628 29.643)">
    <path id="Trazado_6368" data-name="Trazado 6368" d="M-332.065-29.643h-66.263c-4.122,0-6.3,2.176-6.3,6.291V42.926c0,4.118,2.177,6.3,6.3,6.3h66.263c4.122,0,6.3-2.176,6.3-6.293V-23.347C-325.77-27.466-327.947-29.643-332.065-29.643Zm4.6,72.7c0,3.089-1.4,4.466-4.531,4.466h-66.376c-3.191,0-4.552-1.361-4.552-4.552V-23.422c0-3.126,1.381-4.519,4.476-4.519h66.483c3.113,0,4.5,1.386,4.5,4.5Q-327.467,9.8-327.469,43.053Z"/>
    <path id="Trazado_6369" data-name="Trazado 6369" d="M-360.74,3.922c.32-.028.63-.05.933-.072l.094-.007.175-.012c.593-.042,1.154-.081,1.69-.159a5.361,5.361,0,0,0,4.931-5.619,5.439,5.439,0,0,0-5.419-5.1c-.08,0-.16,0-.24.005-.386,0-.732.011-1.075.022l-.145,0c-.311.01-.623.019-.936.024l-1.468.023c-1.635.027-3.3.053-4.938.06a2.517,2.517,0,0,1-.259.011,3.765,3.765,0,0,1-3.738-3.331c-.221-2.056.986-3.56,3.226-4.029a8.585,8.585,0,0,1,1.727-.176h.423q2.965,0,5.931.018l2.241.009v-1.677h-4.528v-4.436h-1.666v4.466h-1.441c-.269,0-.523,0-.769-.007l-.315,0-.3,0c-.257,0-.467.006-.661.017a6,6,0,0,0-4.462,2.157,5.265,5.265,0,0,0-1.011,4.23,5.331,5.331,0,0,0,5.015,4.371c.6.01,1.209.016,1.821.016h.206c1.247,0,2.515-.015,3.743-.03,1.151-.014,2.3-.027,3.451-.03.049-.005.134-.008.219-.008A3.718,3.718,0,0,1-354.6-2.071a3.539,3.539,0,0,1-3.01,3.986,10.943,10.943,0,0,1-2.151.214c-.1,0-.189,0-.284,0-1.84.007-3.7.011-5.556.011h-7.1v1.7h8.967V8.28h1.666V4.034l.519-.044Z"/>
    <rect id="Rect치ngulo_3855" data-name="Rect치ngulo 3855" width="42.566" height="1.527" transform="translate(-386.509 15.837)"/>
    <rect id="Rect치ngulo_3856" data-name="Rect치ngulo 3856" width="42.566" height="1.525" transform="translate(-386.509 29.48)"/>
  </g>
</svg>
