<?xml version="1.0" encoding="UTF-8"?>
<svg xmlns="http://www.w3.org/2000/svg" xmlns:xlink="http://www.w3.org/1999/xlink" width="60" zoomAndPan="magnify" viewBox="0 0 45 44.999999" height="60" preserveAspectRatio="xMidYMid meet" version="1.0" style="background: transparent;"><defs><clipPath id="739c68875e"><path d="M 24 24 L 33.480469 24 L 33.480469 33.480469 L 24 33.480469 Z M 24 24 " clip-rule="nonzero"/></clipPath></defs><path fill="#333333" d="M 20.625 28.929688 C 20.289062 28.929688 19.953125 28.910156 19.621094 28.867188 C 19.285156 28.828125 18.953125 28.765625 18.628906 28.683594 C 18.300781 28.601562 17.980469 28.5 17.667969 28.378906 C 17.351562 28.257812 17.046875 28.121094 16.75 27.960938 C 16.453125 27.800781 16.167969 27.625 15.890625 27.433594 C 15.617188 27.238281 15.355469 27.027344 15.105469 26.800781 C 14.855469 26.578125 14.621094 26.335938 14.398438 26.082031 C 14.179688 25.824219 13.976562 25.558594 13.789062 25.277344 C 13.601562 25 13.433594 24.707031 13.28125 24.40625 C 13.128906 24.105469 12.996094 23.796875 12.882812 23.480469 C 12.769531 23.164062 12.675781 22.839844 12.601562 22.511719 C 12.53125 22.183594 12.476562 21.851562 12.441406 21.515625 C 12.410156 21.183594 12.398438 20.847656 12.40625 20.507812 C 12.414062 20.171875 12.441406 19.839844 12.492188 19.503906 C 12.542969 19.171875 12.613281 18.84375 12.703125 18.519531 C 12.792969 18.195312 12.902344 17.875 13.03125 17.566406 C 13.160156 17.253906 13.304688 16.953125 13.472656 16.660156 C 13.636719 16.367188 13.820312 16.085938 14.023438 15.816406 C 14.222656 15.542969 14.4375 15.285156 14.671875 15.042969 C 14.902344 14.800781 15.148438 14.570312 15.410156 14.355469 C 15.671875 14.144531 15.941406 13.945312 16.226562 13.765625 C 16.511719 13.585938 16.804688 13.425781 17.109375 13.28125 C 17.414062 13.136719 17.726562 13.011719 18.046875 12.90625 C 18.367188 12.800781 18.691406 12.714844 19.023438 12.652344 C 19.351562 12.585938 19.683594 12.539062 20.019531 12.515625 C 20.355469 12.492188 20.691406 12.488281 21.027344 12.503906 C 21.367188 12.519531 21.699219 12.558594 22.03125 12.613281 C 22.363281 12.671875 22.691406 12.75 23.011719 12.847656 C 23.335938 12.945312 23.648438 13.0625 23.957031 13.199219 C 24.265625 13.335938 24.5625 13.492188 24.851562 13.664062 C 25.140625 13.839844 25.417969 14.027344 25.683594 14.234375 C 25.949219 14.445312 26.199219 14.667969 26.4375 14.90625 C 27.011719 15.480469 27.492188 16.125 27.875 16.839844 C 28.257812 17.558594 28.53125 18.316406 28.6875 19.113281 C 28.847656 19.910156 28.886719 20.710938 28.808594 21.519531 C 28.726562 22.328125 28.53125 23.109375 28.222656 23.859375 C 27.910156 24.609375 27.496094 25.300781 26.980469 25.929688 C 26.464844 26.558594 25.867188 27.097656 25.191406 27.546875 C 24.515625 28 23.789062 28.34375 23.011719 28.578125 C 22.234375 28.8125 21.4375 28.929688 20.625 28.929688 Z M 20.625 14.304688 C 20.132812 14.304688 19.648438 14.359375 19.167969 14.46875 C 18.6875 14.578125 18.230469 14.742188 17.785156 14.960938 C 17.34375 15.175781 16.933594 15.441406 16.554688 15.75 C 16.171875 16.0625 15.832031 16.414062 15.53125 16.804688 C 15.230469 17.195312 14.980469 17.613281 14.773438 18.058594 C 14.570312 18.507812 14.421875 18.972656 14.324219 19.457031 C 14.226562 19.9375 14.1875 20.425781 14.203125 20.917969 C 14.21875 21.410156 14.289062 21.894531 14.414062 22.367188 C 14.542969 22.84375 14.722656 23.296875 14.953125 23.734375 C 15.183594 24.167969 15.460938 24.570312 15.785156 24.9375 C 16.109375 25.308594 16.472656 25.636719 16.871094 25.925781 C 17.273438 26.210938 17.699219 26.449219 18.152344 26.636719 C 18.609375 26.828125 19.078125 26.960938 19.5625 27.042969 C 20.050781 27.121094 20.535156 27.148438 21.027344 27.113281 C 21.519531 27.082031 22 26.996094 22.472656 26.851562 C 22.941406 26.710938 23.390625 26.515625 23.816406 26.269531 C 24.242188 26.023438 24.636719 25.730469 24.996094 25.394531 C 25.355469 25.058594 25.667969 24.6875 25.941406 24.277344 C 26.214844 23.867188 26.441406 23.433594 26.613281 22.972656 C 26.785156 22.511719 26.90625 22.039062 26.96875 21.550781 C 27.03125 21.0625 27.039062 20.574219 26.992188 20.085938 C 26.945312 19.59375 26.839844 19.117188 26.683594 18.652344 C 26.523438 18.183594 26.3125 17.742188 26.054688 17.324219 C 25.792969 16.90625 25.488281 16.527344 25.140625 16.179688 C 24.542969 15.578125 23.851562 15.117188 23.070312 14.792969 C 22.289062 14.46875 21.472656 14.304688 20.625 14.304688 Z M 20.625 14.304688 " fill-opacity="1" fill-rule="nonzero"/><g clip-path="url(#739c68875e)"><path fill="#333333" d="M 32.277344 33.269531 C 32.027344 33.269531 31.816406 33.179688 31.640625 33.003906 L 25.160156 26.527344 C 24.984375 26.351562 24.894531 26.136719 24.894531 25.886719 C 24.894531 25.640625 24.984375 25.425781 25.160156 25.25 C 25.335938 25.074219 25.546875 24.984375 25.796875 24.984375 C 26.046875 24.984375 26.261719 25.074219 26.4375 25.25 L 32.914062 31.730469 C 33.039062 31.859375 33.121094 32.011719 33.15625 32.191406 C 33.191406 32.371094 33.175781 32.542969 33.105469 32.710938 C 33.035156 32.878906 32.925781 33.015625 32.777344 33.117188 C 32.625 33.21875 32.457031 33.269531 32.277344 33.269531 Z M 32.277344 33.269531 " fill-opacity="1" fill-rule="nonzero"/></g></svg>