<?xml version="1.0" encoding="UTF-8"?>
<svg xmlns="http://www.w3.org/2000/svg" xmlns:xlink="http://www.w3.org/1999/xlink" width="60" zoomAndPan="magnify" viewBox="0 0 45 44.999999" height="60" preserveAspectRatio="xMidYMid meet" version="1.0" style="background: transparent;"><defs><clipPath id="3877966686"><path d="M 11.285156 8.050781 L 33.785156 8.050781 L 33.785156 33.550781 L 11.285156 33.550781 Z M 11.285156 8.050781 " clip-rule="nonzero"/></clipPath></defs><g clip-path="url(#3877966686)"><path fill="#333333" d="M 25.621094 20.132812 C 27.519531 19.007812 28.855469 16.972656 28.855469 14.582031 C 28.855469 11.066406 25.972656 8.1875 22.460938 8.1875 C 18.945312 8.1875 16.0625 11.066406 16.0625 14.582031 C 16.0625 16.972656 17.328125 19.007812 19.296875 20.132812 C 14.660156 21.75 11.285156 26.597656 11.285156 32.433594 C 11.285156 32.855469 11.566406 33.132812 11.988281 33.132812 L 33 33.132812 C 33.421875 33.132812 33.703125 32.855469 33.703125 32.433594 C 33.5625 26.597656 30.191406 21.679688 25.621094 20.132812 Z M 17.398438 14.582031 C 17.398438 11.839844 19.648438 9.59375 22.390625 9.59375 C 25.128906 9.59375 27.378906 11.839844 27.378906 14.582031 C 27.378906 17.324219 25.128906 19.570312 22.390625 19.570312 C 19.648438 19.570312 17.398438 17.324219 17.398438 14.582031 Z M 12.621094 31.730469 C 12.902344 25.753906 17.1875 20.976562 22.390625 20.976562 C 27.589844 20.976562 31.875 25.753906 32.15625 31.730469 Z M 12.621094 31.730469 " fill-opacity="1" fill-rule="nonzero"/></g></svg>