<?xml version="1.0" encoding="UTF-8"?>
<svg xmlns="http://www.w3.org/2000/svg" xmlns:xlink="http://www.w3.org/1999/xlink" width="60" zoomAndPan="magnify" viewBox="0 0 45 44.999999" height="60" preserveAspectRatio="xMidYMid meet" version="1.0" style="background: transparent;"><defs><clipPath id="3da252a82c"><path d="M 11.792969 16.320312 L 33.496094 16.320312 L 33.496094 36.695312 L 11.792969 36.695312 Z M 11.792969 16.320312 " clip-rule="nonzero"/></clipPath><clipPath id="289a3df5cc"><path d="M 16 8.195312 L 29 8.195312 L 29 21 L 16 21 Z M 16 8.195312 " clip-rule="nonzero"/></clipPath></defs><g clip-path="url(#3da252a82c)"><path fill="#333333" d="M 12.949219 17.476562 L 12.949219 31.890625 C 12.949219 33.910156 14.625 35.554688 16.679688 35.554688 L 28.609375 35.554688 C 30.664062 35.554688 32.335938 33.910156 32.335938 31.890625 L 32.335938 17.476562 Z M 28.609375 36.695312 L 16.679688 36.695312 C 13.984375 36.695312 11.792969 34.539062 11.792969 31.890625 L 11.792969 16.90625 C 11.792969 16.59375 12.050781 16.335938 12.371094 16.335938 L 32.917969 16.335938 C 33.238281 16.335938 33.496094 16.59375 33.496094 16.90625 L 33.496094 31.890625 C 33.496094 34.539062 31.304688 36.695312 28.609375 36.695312 " fill-opacity="1" fill-rule="nonzero"/></g><g clip-path="url(#289a3df5cc)"><path fill="#333333" d="M 27.78125 20.625 C 27.460938 20.625 27.199219 20.371094 27.199219 20.054688 L 27.199219 13.8125 C 27.199219 11.34375 25.15625 9.332031 22.644531 9.332031 C 20.132812 9.332031 18.089844 11.34375 18.089844 13.8125 L 18.089844 20.054688 C 18.089844 20.371094 17.828125 20.625 17.507812 20.625 C 17.1875 20.625 16.929688 20.371094 16.929688 20.054688 L 16.929688 13.8125 C 16.929688 10.714844 19.492188 8.195312 22.644531 8.195312 C 25.796875 8.195312 28.359375 10.714844 28.359375 13.8125 L 28.359375 20.054688 C 28.359375 20.371094 28.101562 20.625 27.78125 20.625 " fill-opacity="1" fill-rule="nonzero"/></g></svg>