<?xml version="1.0" encoding="UTF-8"?>
<svg xmlns="http://www.w3.org/2000/svg" xmlns:xlink="http://www.w3.org/1999/xlink" width="60" zoomAndPan="magnify" viewBox="0 0 45 44.999999" height="60" preserveAspectRatio="xMidYMid meet" version="1.0" style="background: transparent;"><defs><clipPath id="053c1ebcac"><path d="M 7.050781 10.140625 L 37.800781 10.140625 L 37.800781 23 L 7.050781 23 Z M 7.050781 10.140625 " clip-rule="nonzero"/></clipPath><clipPath id="887e79f25f"><path d="M 7.050781 15 L 37.800781 15 L 37.800781 34.890625 L 7.050781 34.890625 Z M 7.050781 15 " clip-rule="nonzero"/></clipPath></defs><g clip-path="url(#053c1ebcac)"><path fill="#000000" d="M 22.425781 22.332031 L 37.390625 12.925781 C 37.210938 12.511719 36.972656 12.132812 36.679688 11.789062 C 36.390625 11.445312 36.054688 11.148438 35.679688 10.902344 C 35.300781 10.65625 34.898438 10.46875 34.46875 10.339844 C 34.035156 10.207031 33.597656 10.144531 33.144531 10.144531 L 11.707031 10.144531 C 11.261719 10.144531 10.824219 10.207031 10.394531 10.335938 C 9.96875 10.464844 9.566406 10.648438 9.191406 10.894531 C 8.816406 11.136719 8.484375 11.429688 8.191406 11.769531 C 7.898438 12.109375 7.664062 12.484375 7.476562 12.894531 Z M 22.425781 22.332031 " fill-opacity="1" fill-rule="nonzero"/></g><g clip-path="url(#887e79f25f)"><path fill="#000000" d="M 22.96875 24.421875 C 22.609375 24.648438 22.246094 24.648438 21.882812 24.421875 L 7.050781 15.058594 L 7.050781 30.207031 C 7.050781 30.515625 7.082031 30.820312 7.140625 31.121094 C 7.203125 31.421875 7.289062 31.714844 7.40625 32 C 7.523438 32.28125 7.667969 32.550781 7.835938 32.808594 C 8.007812 33.0625 8.199219 33.300781 8.417969 33.515625 C 8.632812 33.734375 8.867188 33.929688 9.121094 34.101562 C 9.375 34.269531 9.644531 34.414062 9.925781 34.53125 C 10.207031 34.652344 10.5 34.738281 10.800781 34.800781 C 11.097656 34.859375 11.402344 34.890625 11.707031 34.890625 L 33.144531 34.890625 C 33.453125 34.890625 33.753906 34.859375 34.054688 34.800781 C 34.355469 34.738281 34.644531 34.652344 34.925781 34.53125 C 35.210938 34.414062 35.476562 34.269531 35.730469 34.101562 C 35.984375 33.929688 36.222656 33.734375 36.4375 33.515625 C 36.652344 33.300781 36.847656 33.0625 37.015625 32.808594 C 37.1875 32.550781 37.328125 32.28125 37.445312 32 C 37.5625 31.714844 37.652344 31.421875 37.710938 31.121094 C 37.773438 30.820312 37.800781 30.515625 37.800781 30.207031 L 37.800781 15.097656 Z M 22.96875 24.421875 " fill-opacity="1" fill-rule="nonzero"/></g></svg>