<?xml version="1.0" encoding="UTF-8"?>
<svg xmlns="http://www.w3.org/2000/svg" xmlns:xlink="http://www.w3.org/1999/xlink" width="60" zoomAndPan="magnify" viewBox="0 0 45 44.999999" height="60" preserveAspectRatio="xMidYMid meet" version="1.0" style="background: transparent;"><defs><clipPath id="177a9129c6"><path d="M 5.960938 5.960938 L 38.960938 5.960938 L 38.960938 38.960938 L 5.960938 38.960938 Z M 5.960938 5.960938 " clip-rule="nonzero"/></clipPath><clipPath id="05d4b83206"><path d="M 15 12 L 31 12 L 31 38.960938 L 15 38.960938 Z M 15 12 " clip-rule="nonzero"/></clipPath></defs><g clip-path="url(#177a9129c6)"><path fill="#0866ff" d="M 38.96875 22.464844 C 38.96875 13.351562 31.578125 5.960938 22.464844 5.960938 C 13.351562 5.960938 5.960938 13.351562 5.960938 22.464844 C 5.960938 30.203125 11.289062 36.699219 18.476562 38.484375 L 18.476562 27.507812 L 15.074219 27.507812 L 15.074219 22.464844 L 18.476562 22.464844 L 18.476562 20.292969 C 18.476562 14.675781 21.019531 12.070312 26.535156 12.070312 C 27.578125 12.070312 29.382812 12.277344 30.121094 12.484375 L 30.121094 17.054688 C 29.730469 17.011719 29.054688 16.992188 28.214844 16.992188 C 25.507812 16.992188 24.464844 18.015625 24.464844 20.679688 L 24.464844 22.464844 L 29.851562 22.464844 L 28.925781 27.507812 L 24.464844 27.507812 L 24.464844 38.84375 C 32.636719 37.859375 38.96875 30.902344 38.96875 22.464844 Z M 38.96875 22.464844 " fill-opacity="1" fill-rule="nonzero"/></g><g clip-path="url(#05d4b83206)"><path fill="#ffffff" d="M 28.929688 27.507812 L 29.855469 22.464844 L 24.464844 22.464844 L 24.464844 20.679688 C 24.464844 18.015625 25.511719 16.992188 28.214844 16.992188 C 29.054688 16.992188 29.734375 17.011719 30.121094 17.054688 L 30.121094 12.484375 C 29.386719 12.277344 27.582031 12.070312 26.535156 12.070312 C 21.019531 12.070312 18.480469 14.675781 18.480469 20.292969 L 18.480469 22.464844 L 15.074219 22.464844 L 15.074219 27.507812 L 18.480469 27.507812 L 18.480469 38.484375 C 19.757812 38.800781 21.089844 38.96875 22.46875 38.96875 C 23.144531 38.96875 23.808594 38.925781 24.464844 38.847656 L 24.464844 27.507812 Z M 28.929688 27.507812 " fill-opacity="1" fill-rule="nonzero"/></g></svg>