<?xml version="1.0" encoding="UTF-8"?>
<svg xmlns="http://www.w3.org/2000/svg" xmlns:xlink="http://www.w3.org/1999/xlink" width="60" zoomAndPan="magnify" viewBox="0 0 45 44.999999" height="60" preserveAspectRatio="xMidYMid meet" version="1.0" style="background: transparent;"><defs><clipPath id="706bec265c"><path d="M 5.925781 4.5 L 38.925781 4.5 L 38.925781 37.5 L 5.925781 37.5 Z M 5.925781 4.5 " clip-rule="nonzero"/></clipPath></defs><g clip-path="url(#706bec265c)"><path fill="#000000" d="M 38.929688 21.003906 C 38.929688 21.542969 38.90625 22.082031 38.851562 22.621094 C 38.796875 23.160156 38.71875 23.691406 38.613281 24.222656 C 38.507812 24.753906 38.378906 25.277344 38.21875 25.792969 C 38.0625 26.3125 37.882812 26.820312 37.675781 27.316406 C 37.46875 27.816406 37.238281 28.304688 36.980469 28.78125 C 36.726562 29.257812 36.449219 29.722656 36.148438 30.171875 C 35.847656 30.621094 35.527344 31.054688 35.183594 31.472656 C 34.84375 31.890625 34.480469 32.289062 34.097656 32.671875 C 33.714844 33.054688 33.316406 33.417969 32.898438 33.761719 C 32.480469 34.101562 32.046875 34.425781 31.597656 34.726562 C 31.148438 35.023438 30.683594 35.300781 30.207031 35.558594 C 29.730469 35.8125 29.242188 36.042969 28.742188 36.25 C 28.242188 36.457031 27.734375 36.636719 27.21875 36.796875 C 26.703125 36.953125 26.175781 37.082031 25.648438 37.1875 C 25.117188 37.292969 24.582031 37.375 24.046875 37.425781 C 23.507812 37.480469 22.96875 37.507812 22.429688 37.507812 C 21.886719 37.507812 21.347656 37.480469 20.808594 37.425781 C 20.273438 37.375 19.738281 37.292969 19.207031 37.1875 C 18.679688 37.082031 18.15625 36.953125 17.636719 36.796875 C 17.121094 36.636719 16.613281 36.457031 16.113281 36.25 C 15.613281 36.042969 15.125 35.8125 14.648438 35.558594 C 14.171875 35.300781 13.707031 35.023438 13.257812 34.722656 C 12.808594 34.425781 12.375 34.101562 11.957031 33.761719 C 11.539062 33.417969 11.140625 33.054688 10.757812 32.671875 C 10.375 32.289062 10.015625 31.890625 9.671875 31.472656 C 9.328125 31.054688 9.007812 30.621094 8.707031 30.171875 C 8.40625 29.722656 8.128906 29.257812 7.875 28.78125 C 7.617188 28.304688 7.386719 27.816406 7.179688 27.316406 C 6.972656 26.820312 6.792969 26.3125 6.636719 25.792969 C 6.480469 25.277344 6.347656 24.753906 6.242188 24.222656 C 6.136719 23.691406 6.058594 23.160156 6.003906 22.621094 C 5.953125 22.082031 5.925781 21.542969 5.925781 21.003906 C 5.925781 20.460938 5.953125 19.921875 6.003906 19.386719 C 6.058594 18.847656 6.136719 18.3125 6.242188 17.785156 C 6.347656 17.253906 6.480469 16.730469 6.636719 16.210938 C 6.792969 15.695312 6.972656 15.1875 7.179688 14.6875 C 7.386719 14.1875 7.617188 13.699219 7.875 13.222656 C 8.128906 12.746094 8.40625 12.285156 8.707031 11.835938 C 9.007812 11.386719 9.328125 10.953125 9.671875 10.535156 C 10.015625 10.117188 10.375 9.714844 10.757812 9.332031 C 11.140625 8.953125 11.539062 8.589844 11.957031 8.246094 C 12.375 7.902344 12.808594 7.582031 13.257812 7.28125 C 13.707031 6.980469 14.171875 6.703125 14.648438 6.449219 C 15.125 6.195312 15.613281 5.964844 16.113281 5.757812 C 16.613281 5.550781 17.121094 5.367188 17.636719 5.210938 C 18.15625 5.054688 18.679688 4.921875 19.207031 4.816406 C 19.738281 4.710938 20.273438 4.632812 20.808594 4.578125 C 21.347656 4.527344 21.886719 4.5 22.429688 4.5 C 22.96875 4.5 23.507812 4.527344 24.046875 4.578125 C 24.582031 4.632812 25.117188 4.710938 25.648438 4.816406 C 26.175781 4.921875 26.703125 5.054688 27.21875 5.210938 C 27.734375 5.367188 28.242188 5.550781 28.742188 5.757812 C 29.242188 5.964844 29.730469 6.195312 30.207031 6.449219 C 30.683594 6.703125 31.148438 6.980469 31.597656 7.28125 C 32.046875 7.582031 32.480469 7.902344 32.898438 8.246094 C 33.316406 8.589844 33.714844 8.953125 34.097656 9.332031 C 34.480469 9.714844 34.84375 10.117188 35.183594 10.535156 C 35.527344 10.953125 35.847656 11.386719 36.148438 11.835938 C 36.449219 12.285156 36.726562 12.746094 36.980469 13.222656 C 37.238281 13.699219 37.46875 14.1875 37.675781 14.6875 C 37.882812 15.1875 38.0625 15.695312 38.21875 16.210938 C 38.378906 16.730469 38.507812 17.253906 38.613281 17.785156 C 38.71875 18.3125 38.796875 18.847656 38.851562 19.386719 C 38.90625 19.921875 38.929688 20.460938 38.929688 21.003906 Z M 38.929688 21.003906 " fill-opacity="1" fill-rule="nonzero"/></g><path fill="#25f4ee" d="M 20.238281 18.644531 L 20.238281 17.75 C 19.9375 17.707031 19.632812 17.683594 19.320312 17.683594 C 15.574219 17.683594 12.527344 20.730469 12.527344 24.476562 C 12.527344 26.777344 13.675781 28.808594 15.429688 30.042969 C 14.296875 28.828125 13.625 27.199219 13.625 25.414062 C 13.625 21.722656 16.566406 18.730469 20.238281 18.644531 Z M 20.238281 18.644531 " fill-opacity="1" fill-rule="nonzero"/><path fill="#25f4ee" d="M 20.398438 28.535156 C 22.070312 28.535156 23.453125 27.1875 23.515625 25.53125 L 23.527344 10.753906 L 26.207031 10.753906 C 26.207031 10.753906 26.203125 10.734375 26.203125 10.734375 C 26.148438 10.433594 26.117188 10.117188 26.117188 9.796875 L 22.425781 9.796875 L 22.417969 24.59375 C 22.359375 26.25 20.992188 27.582031 19.320312 27.582031 C 18.800781 27.582031 18.3125 27.449219 17.882812 27.226562 C 18.445312 28.007812 19.363281 28.539062 20.398438 28.539062 Z M 20.398438 28.535156 " fill-opacity="1" fill-rule="nonzero"/><path fill="#25f4ee" d="M 31.253906 15.800781 L 31.253906 14.933594 C 30.222656 14.933594 29.261719 14.625 28.457031 14.097656 C 29.171875 14.921875 30.148438 15.5625 31.253906 15.796875 Z M 31.253906 15.800781 " fill-opacity="1" fill-rule="nonzero"/><path fill="#fe2c55" d="M 28.457031 14.101562 C 27.671875 13.199219 27.191406 12.023438 27.191406 10.734375 L 26.1875 10.734375 C 26.449219 12.140625 27.300781 13.347656 28.457031 14.101562 Z M 28.457031 14.101562 " fill-opacity="1" fill-rule="nonzero"/><path fill="#fe2c55" d="M 19.320312 21.34375 C 17.609375 21.34375 16.195312 22.765625 16.195312 24.476562 C 16.195312 25.667969 16.894531 26.703125 17.882812 27.222656 C 17.511719 26.714844 17.292969 26.089844 17.292969 25.414062 C 17.292969 23.703125 18.683594 22.308594 20.398438 22.308594 C 20.714844 22.308594 21.023438 22.363281 21.3125 22.453125 L 21.3125 18.683594 C 21.011719 18.644531 20.707031 18.617188 20.398438 18.617188 C 20.34375 18.617188 20.289062 18.621094 20.238281 18.625 L 20.222656 18.625 C 20.222656 18.625 20.210938 21.476562 20.210938 21.476562 C 19.921875 21.386719 19.640625 21.347656 19.320312 21.347656 Z M 19.320312 21.34375 " fill-opacity="1" fill-rule="nonzero"/><path fill="#fe2c55" d="M 31.253906 15.753906 L 31.234375 15.753906 L 31.234375 18.601562 C 29.320312 18.601562 27.542969 17.972656 26.09375 16.933594 L 26.09375 24.476562 C 26.09375 28.222656 23.066406 31.25 19.320312 31.25 C 17.875 31.25 16.53125 30.8125 15.425781 30.039062 C 16.667969 31.371094 18.4375 32.207031 20.398438 32.207031 C 24.144531 32.207031 27.191406 29.160156 27.191406 25.414062 L 27.191406 17.910156 C 28.640625 18.949219 30.414062 19.5625 32.328125 19.5625 L 32.328125 15.871094 C 31.957031 15.871094 31.601562 15.832031 31.253906 15.753906 Z M 31.253906 15.753906 " fill-opacity="1" fill-rule="nonzero"/><path fill="#ffffff" d="M 26.117188 24.476562 L 26.117188 16.972656 C 27.5625 18.011719 29.339844 18.625 31.253906 18.625 L 31.253906 15.753906 C 30.144531 15.519531 29.171875 14.925781 28.453125 14.101562 C 27.296875 13.347656 26.464844 12.140625 26.203125 10.734375 L 23.5 10.734375 L 23.492188 25.53125 C 23.433594 27.1875 22.066406 28.515625 20.394531 28.515625 C 19.359375 28.515625 18.445312 28.003906 17.878906 27.222656 C 16.890625 26.703125 16.214844 25.667969 16.214844 24.472656 C 16.214844 22.761719 17.609375 21.371094 19.320312 21.371094 C 19.640625 21.371094 19.945312 21.421875 20.234375 21.515625 L 20.234375 18.621094 C 16.5625 18.707031 13.601562 21.71875 13.601562 25.414062 C 13.601562 27.199219 14.296875 28.824219 15.425781 30.039062 C 16.527344 30.816406 17.871094 31.269531 19.320312 31.269531 C 23.066406 31.269531 26.113281 28.222656 26.113281 24.476562 Z M 26.117188 24.476562 " fill-opacity="1" fill-rule="nonzero"/></svg>